# xmcd CD database file
#
# Track frame offsets:
#	150
#	22695
#	42854
#	65435
#	86351
#	112288
#	132489
#	152389
#	168902
#	193109
#	213442
#
# Disc length: 3075 seconds
#
# Revision: 1
# Processed by: cddbd v1.5.2PL0 Copyright (c) Steve Scherf et al.
# Submitted via: CDex 1.51
#
DISCID=8c0c010b
DTITLE=Nebula-H - rH
DYEAR=2008
DGENRE=Jazz
TTITLE0=69
TTITLE1=Train 2PD
TTITLE2=Prince of Darkness
TTITLE3=Freaks
TTITLE4=Hitch
TTITLE5=Birds
TTITLE6=Masks
TTITLE7=H. T-L (feat. Propulsion)
TTITLE8=Art Brut
TTITLE9=Head Off
TTITLE10=Art or Pornography (feat. Foochow)
EXTD=YEAR: 2008
EXTT0=
EXTT1=
EXTT2=
EXTT3=
EXTT4=
EXTT5=
EXTT6=
EXTT7=
EXTT8=
EXTT9=
EXTT10=
PLAYORDER=
